# xmcd
#
# Track frame offsets:
#	150
#	14180
#	29950
#	47517
#	67665
#	82070
#	100692
#	115562
#	133690
#	149947
#
# Disc length: 2248 seconds
#
# Revision: 0
# Processed by: cddbd v1.5.1PL2 Copyright (c) Steve Scherf et al.
# Submitted via: dBpowerAMP V4.0
#
DISCID=9008c60a
DTITLE=Spike Blake - Weak Heart, Stong Memory
DYEAR=1900
DGENRE=Country
TTITLE0=Half The Battle
TTITLE1=Trick To Love
TTITLE2=Dividing Love In Two
TTITLE3=Weak Heart, Stong Memory
TTITLE4=Subtle Ways
TTITLE5=I Can't Explain
TTITLE6=Heartache Is Her Name
TTITLE7=Like Old Friends
TTITLE8=You Make It Easy
TTITLE9=Letter To A Fool
EXTD=
EXTT0=
EXTT1=
EXTT2=
EXTT3=
EXTT4=
EXTT5=
EXTT6=
EXTT7=
EXTT8=
EXTT9=
PLAYORDER=
